<mxfile host="app.diagrams.net" agent="Mozilla/5.0 (Windows NT 10.0; Win64; x64) AppleWebKit/537.36 (KHTML, like Gecko) Chrome/137.0.0.0 Safari/537.36 Edg/137.0.0.0" version="27.1.1">
  <diagram name="第 1 页" id="c7wkUZScmWmoxdMVLBq1">
    <mxGraphModel dx="1720" dy="870" grid="1" gridSize="10" guides="1" tooltips="1" connect="1" arrows="1" fold="1" page="1" pageScale="1" pageWidth="827" pageHeight="1169" math="0" shadow="0">
      <root>
        <mxCell id="0" />
        <mxCell id="1" parent="0" />
        <mxCell id="-N2ekf34AgBmM6lyyAxI-1" value="FEEDBACK_FORWARD" style="whiteSpace=wrap;strokeWidth=2;" vertex="1" parent="1">
          <mxGeometry x="242" y="20" width="209" height="54" as="geometry" />
        </mxCell>
        <mxCell id="-N2ekf34AgBmM6lyyAxI-2" value="方向" style="rhombus;strokeWidth=2;whiteSpace=wrap;" vertex="1" parent="1">
          <mxGeometry x="227" y="146" width="86" height="86" as="geometry" />
        </mxCell>
        <mxCell id="-N2ekf34AgBmM6lyyAxI-3" value="FEEDBACK_TURN_LEFT" style="whiteSpace=wrap;strokeWidth=2;" vertex="1" parent="1">
          <mxGeometry x="20" y="305" width="223" height="54" as="geometry" />
        </mxCell>
        <mxCell id="-N2ekf34AgBmM6lyyAxI-4" value="FEEDBACK_TURN_RIGHT" style="whiteSpace=wrap;strokeWidth=2;" vertex="1" parent="1">
          <mxGeometry x="293" y="305" width="233" height="54" as="geometry" />
        </mxCell>
        <mxCell id="-N2ekf34AgBmM6lyyAxI-5" value="设置左转参数" style="whiteSpace=wrap;strokeWidth=2;" vertex="1" parent="1">
          <mxGeometry x="53" y="431" width="156" height="54" as="geometry" />
        </mxCell>
        <mxCell id="-N2ekf34AgBmM6lyyAxI-6" value="TURN状态" style="whiteSpace=wrap;strokeWidth=2;" vertex="1" parent="1">
          <mxGeometry x="205" y="535" width="131" height="54" as="geometry" />
        </mxCell>
        <mxCell id="-N2ekf34AgBmM6lyyAxI-7" value="设置右转参数" style="whiteSpace=wrap;strokeWidth=2;" vertex="1" parent="1">
          <mxGeometry x="331" y="431" width="156" height="54" as="geometry" />
        </mxCell>
        <mxCell id="-N2ekf34AgBmM6lyyAxI-8" value="角度达标?" style="rhombus;strokeWidth=2;whiteSpace=wrap;" vertex="1" parent="1">
          <mxGeometry x="408" y="661" width="124" height="124" as="geometry" />
        </mxCell>
        <mxCell id="-N2ekf34AgBmM6lyyAxI-9" value="偏差过大" style="curved=1;startArrow=none;endArrow=block;exitX=0.34;exitY=1;entryX=0.51;entryY=0;rounded=0;" edge="1" parent="1" source="-N2ekf34AgBmM6lyyAxI-1" target="-N2ekf34AgBmM6lyyAxI-2">
          <mxGeometry relative="1" as="geometry">
            <Array as="points">
              <mxPoint x="270" y="110" />
            </Array>
          </mxGeometry>
        </mxCell>
        <mxCell id="-N2ekf34AgBmM6lyyAxI-10" value="左偏" style="curved=1;startArrow=none;endArrow=block;exitX=0.01;exitY=0.79;entryX=0.5;entryY=-0.01;rounded=0;" edge="1" parent="1" source="-N2ekf34AgBmM6lyyAxI-2" target="-N2ekf34AgBmM6lyyAxI-3">
          <mxGeometry relative="1" as="geometry">
            <Array as="points">
              <mxPoint x="131" y="268" />
            </Array>
          </mxGeometry>
        </mxCell>
        <mxCell id="-N2ekf34AgBmM6lyyAxI-11" value="右偏" style="curved=1;startArrow=none;endArrow=block;exitX=1.01;exitY=0.79;entryX=0.5;entryY=-0.01;rounded=0;" edge="1" parent="1" source="-N2ekf34AgBmM6lyyAxI-2" target="-N2ekf34AgBmM6lyyAxI-4">
          <mxGeometry relative="1" as="geometry">
            <Array as="points">
              <mxPoint x="409" y="268" />
            </Array>
          </mxGeometry>
        </mxCell>
        <mxCell id="-N2ekf34AgBmM6lyyAxI-12" value="" style="curved=1;startArrow=none;endArrow=block;exitX=0.5;exitY=0.99;entryX=0.5;entryY=0;rounded=0;" edge="1" parent="1" source="-N2ekf34AgBmM6lyyAxI-3" target="-N2ekf34AgBmM6lyyAxI-5">
          <mxGeometry relative="1" as="geometry">
            <Array as="points" />
          </mxGeometry>
        </mxCell>
        <mxCell id="-N2ekf34AgBmM6lyyAxI-13" value="" style="curved=1;startArrow=none;endArrow=block;exitX=0.5;exitY=1;entryX=0;entryY=0.04;rounded=0;" edge="1" parent="1" source="-N2ekf34AgBmM6lyyAxI-5" target="-N2ekf34AgBmM6lyyAxI-6">
          <mxGeometry relative="1" as="geometry">
            <Array as="points">
              <mxPoint x="131" y="510" />
            </Array>
          </mxGeometry>
        </mxCell>
        <mxCell id="-N2ekf34AgBmM6lyyAxI-14" value="" style="curved=1;startArrow=none;endArrow=block;exitX=0.5;exitY=0.99;entryX=0.5;entryY=0;rounded=0;" edge="1" parent="1" source="-N2ekf34AgBmM6lyyAxI-4" target="-N2ekf34AgBmM6lyyAxI-7">
          <mxGeometry relative="1" as="geometry">
            <Array as="points" />
          </mxGeometry>
        </mxCell>
        <mxCell id="-N2ekf34AgBmM6lyyAxI-15" value="" style="curved=1;startArrow=none;endArrow=block;exitX=0.5;exitY=1;entryX=1;entryY=0.04;rounded=0;" edge="1" parent="1" source="-N2ekf34AgBmM6lyyAxI-7" target="-N2ekf34AgBmM6lyyAxI-6">
          <mxGeometry relative="1" as="geometry">
            <Array as="points">
              <mxPoint x="409" y="510" />
            </Array>
          </mxGeometry>
        </mxCell>
        <mxCell id="-N2ekf34AgBmM6lyyAxI-16" value="定时检查" style="curved=1;startArrow=none;endArrow=block;exitX=0.4;exitY=1;entryX=0;entryY=0.29;rounded=0;" edge="1" parent="1" source="-N2ekf34AgBmM6lyyAxI-6" target="-N2ekf34AgBmM6lyyAxI-8">
          <mxGeometry relative="1" as="geometry">
            <Array as="points">
              <mxPoint x="238" y="625" />
            </Array>
          </mxGeometry>
        </mxCell>
        <mxCell id="-N2ekf34AgBmM6lyyAxI-17" value="是" style="curved=1;startArrow=none;endArrow=block;exitX=0.96;exitY=0;entryX=0.94;entryY=1;rounded=0;" edge="1" parent="1" source="-N2ekf34AgBmM6lyyAxI-8" target="-N2ekf34AgBmM6lyyAxI-1">
          <mxGeometry relative="1" as="geometry">
            <Array as="points">
              <mxPoint x="561" y="625" />
              <mxPoint x="561" y="110" />
            </Array>
          </mxGeometry>
        </mxCell>
        <mxCell id="-N2ekf34AgBmM6lyyAxI-18" value="否" style="curved=1;startArrow=none;endArrow=block;exitX=0.5;exitY=0;entryX=1;entryY=0.88;rounded=0;" edge="1" parent="1" source="-N2ekf34AgBmM6lyyAxI-8" target="-N2ekf34AgBmM6lyyAxI-6">
          <mxGeometry relative="1" as="geometry">
            <Array as="points">
              <mxPoint x="470" y="625" />
            </Array>
          </mxGeometry>
        </mxCell>
      </root>
    </mxGraphModel>
  </diagram>
</mxfile>
